<svg xmlns="http://www.w3.org/2000/svg" width="96" height="96" viewBox="0 0 96 96">
    <g fill="none" fill-rule="evenodd">
        <path fill="#52A499" d="M47.859 95.247c26.43 0 47.858-21.322 47.858-47.623C95.717 21.324 74.29 0 47.86 0 21.429 0 0 21.323 0 47.624c0 26.3 21.429 47.623 47.859 47.623z"/>
        <path fill="#FFF" d="M57.487 45.712H38.191c-1.755 0-3.191-1.43-3.191-3.175V23.335c0-1.746 1.436-3.175 3.19-3.175h19.297c1.755 0 3.19 1.429 3.19 3.175v19.202c0 1.746-1.435 3.175-3.19 3.175z"/>
        <path fill="#8CFFD0" d="M57.487 20.16H38.191c-1.755 0-3.191 1.429-3.191 3.175v19.202c0 1.747 1.436 3.175 3.19 3.175h19.297c1.755 0 3.19-1.428 3.19-3.175V23.335c0-1.746-1.435-3.175-3.19-3.175zM38.191 42.537h19.296V23.335H38.191v19.202z"/>
        <path fill="#52A499" d="M46.214 34.292h3.094l-1.561-4.253-1.533 4.253zm4.153 2.861l-.494-1.293h-4.21l-.495 1.322c-.193.515-.357.863-.494 1.043-.137.18-.36.271-.671.271a.984.984 0 0 1-.7-.289c-.202-.192-.303-.41-.303-.653 0-.14.024-.286.07-.436.047-.15.125-.359.234-.625l2.648-6.692.272-.693c.107-.269.22-.493.34-.671.12-.178.278-.322.473-.432.195-.11.437-.165.723-.165.293 0 .537.055.732.165.195.11.353.252.473.426.12.173.222.36.304.558.082.2.187.465.314.797l2.706 6.65c.211.506.317.874.317 1.104 0 .239-.1.458-.3.657-.2.2-.441.3-.724.3a.937.937 0 0 1-.423-.089.878.878 0 0 1-.297-.239c-.08-.1-.166-.255-.259-.464-.09-.208-.17-.392-.236-.552z"/>
        <path fill="#FFF" d="M44.487 72.592H25.191c-1.755 0-3.191-1.43-3.191-3.175V50.215c0-1.746 1.436-3.175 3.19-3.175h19.297c1.755 0 3.19 1.429 3.19 3.175v19.202c0 1.746-1.435 3.175-3.19 3.175"/>
        <path fill="#8CFFD0" d="M44.487 47.04H25.191c-1.755 0-3.191 1.429-3.191 3.175v19.202c0 1.746 1.436 3.175 3.19 3.175h19.297c1.755 0 3.19-1.43 3.19-3.175V50.215c0-1.746-1.435-3.175-3.19-3.175zM25.191 69.417h19.296V50.215H25.191v19.202z"/>
        <path fill="#FFF" d="M71.487 72.592H52.191c-1.755 0-3.191-1.43-3.191-3.175V50.215c0-1.746 1.436-3.175 3.19-3.175h19.297c1.755 0 3.19 1.429 3.19 3.175v19.202c0 1.746-1.435 3.175-3.19 3.175"/>
        <path fill="#8CFFD0" d="M71.487 47.04H52.191c-1.756 0-3.191 1.429-3.191 3.175v19.202c0 1.746 1.435 3.175 3.19 3.175h19.297c1.755 0 3.19-1.43 3.19-3.175V50.215c0-1.746-1.435-3.175-3.19-3.175zM52.191 69.417h19.296V50.215H52.191v19.202z"/>
        <path fill="#52A499" d="M65.989 63.012a3.867 3.867 0 0 1-.767 1.124 3.902 3.902 0 0 1-1.335.896c-.542.23-1.172.345-1.893.345a6.69 6.69 0 0 1-1.49-.155 4.219 4.219 0 0 1-1.22-.482 4.1 4.1 0 0 1-1.005-.86 5.113 5.113 0 0 1-.7-1.087 5.641 5.641 0 0 1-.434-1.282A6.91 6.91 0 0 1 57 60.063c0-.83.121-1.573.364-2.228a4.75 4.75 0 0 1 1.041-1.685 4.55 4.55 0 0 1 1.59-1.064 5.166 5.166 0 0 1 1.943-.366c.837 0 1.585.167 2.239.5.654.333 1.155.744 1.504 1.233.349.49.523.952.523 1.388 0 .239-.085.45-.254.633a.81.81 0 0 1-.615.274c-.268 0-.47-.063-.603-.19-.135-.126-.284-.344-.45-.653-.272-.51-.594-.893-.963-1.146-.37-.253-.826-.38-1.367-.38-.862 0-1.548.326-2.06.977-.51.652-.766 1.577-.766 2.777 0 .801.113 1.468.339 2 .226.532.547.929.961 1.191.414.262.9.393 1.455.393.603 0 1.113-.148 1.53-.446.416-.298.73-.734.942-1.31.09-.272.2-.494.333-.665.131-.17.343-.256.635-.256.25 0 .464.086.643.26.179.173.268.39.268.646 0 .328-.081.684-.243 1.066zM35.28 60.449h-2.182v3.008h2.253c1.417 0 2.126-.508 2.126-1.526 0-.52-.183-.897-.551-1.13-.367-.235-.916-.352-1.646-.352zm-2.182-4.161v2.663h1.92c.524 0 .928-.049 1.212-.147.285-.099.503-.286.654-.563.118-.197.177-.417.177-.66 0-.52-.187-.866-.559-1.037-.371-.171-.94-.256-1.702-.256h-1.702zm2.338 8.736H32.27c-.457 0-.783-.102-.978-.305-.196-.204-.293-.529-.293-.974v-7.746c0-.454.1-.781.3-.98.2-.2.523-.299.971-.299h3.355c.495 0 .923.03 1.286.091.362.061.688.178.975.352.244.145.461.33.65.552a2.428 2.428 0 0 1 .58 1.592c0 1.03-.52 1.785-1.555 2.263 1.36.43 2.042 1.27 2.042 2.516 0 .576-.149 1.096-.445 1.557a2.667 2.667 0 0 1-1.202 1.023 4.26 4.26 0 0 1-1.088.278c-.409.054-.887.08-1.433.08z"/>
    </g>
</svg>
