<svg xmlns="http://www.w3.org/2000/svg" width="96" height="96" viewBox="0 0 96 96">
    <defs>
        <linearGradient id="a" x1="50%" x2="50%" y1="0%" y2="100%">
            <stop offset="0%" stop-color="#6A2440"/>
            <stop offset="100%"/>
        </linearGradient>
    </defs>
    <g fill="none" fill-rule="evenodd">
        <path fill="url(#a)" d="M95.666 48.202c0 26.301-21.206 47.623-47.364 47.623C22.143 95.825.937 74.503.937 48.202.937 21.902 22.143.58 48.302.58 74.46.58 95.666 21.9 95.666 48.202"/>
        <path fill="#FF8FE3" d="M45.268 33.359c0 5.699-4.595 10.319-10.263 10.319s-10.263-4.62-10.263-10.32c0-5.698 4.595-10.318 10.263-10.318s10.263 4.62 10.263 10.319"/>
        <path fill="#FFF" d="M71.595 34.12c0 5.59-4.506 10.12-10.066 10.12-5.559 0-10.065-4.53-10.065-10.12 0-5.59 4.506-10.12 10.065-10.12 5.56 0 10.066 4.53 10.066 10.12"/>
        <path fill="#FF8FE3" d="M36.246 54.316c0 4.02-3.24 7.277-7.237 7.277-3.996 0-7.236-3.258-7.236-7.277 0-4.018 3.24-7.276 7.236-7.276 3.997 0 7.237 3.258 7.237 7.276M73.23 50.057c0 2.196-1.77 3.976-3.955 3.976s-3.955-1.78-3.955-3.976c0-2.197 1.77-3.977 3.955-3.977 2.184 0 3.955 1.78 3.955 3.977"/>
        <path fill="#FF8FE3" d="M53.483 48.923l14.72-2.843 1.795 7.74-13.357 5.025H42.694v18.522h-20.92V53.95s1.722-6.822 7.236-7.276c11.324-.935 24.473 2.248 24.473 2.248z"/>
        <path fill="#FFF" d="M56.412 61.908v16.14H76.54l.959-23.416s-.165-2.853-2.63-4.712c0 0 .457 4.425-2.271 5.58-2.984 1.264-16.186 6.408-16.186 6.408"/>
    </g>
</svg>
