<svg xmlns="http://www.w3.org/2000/svg" width="96" height="96" viewBox="0 0 96 96">
    <defs>
        <linearGradient id="a" x1="50%" x2="50%" y1="0%" y2="100%">
            <stop offset="0%" stop-color="#6A2440"/>
            <stop offset="100%"/>
        </linearGradient>
    </defs>
    <g fill="none" fill-rule="evenodd">
        <path fill="url(#a)" d="M95.716 47.623c0 26.3-21.427 47.623-47.858 47.623C21.427 95.246 0 73.924 0 47.623S21.427 0 47.858 0c26.43 0 47.858 21.322 47.858 47.623z"/>
        <path fill="#FFF" d="M42.05 15.36h-5.826c-2.323 0-4.224 1.892-4.224 4.204v12.173h2.339V20.144a2.47 2.47 0 0 1 2.469-2.457h5.243V15.36zM58.826 15.36H53v2.327h5.243a2.47 2.47 0 0 1 2.469 2.457v11.593h2.339V19.564c0-2.312-1.901-4.204-4.225-4.204"/>
        <path fill="#FF8FE3" d="M63.162 30.591a1.972 1.972 0 0 0-1.967-1.791 1.97 1.97 0 0 0-1.967 1.791h-.01v7.89c0 6.437-5.667 12.498-12.135 12.498s-12.13-6.061-12.13-12.498v-7.268a1.982 1.982 0 0 0-1.937-2.413 1.983 1.983 0 0 0-1.978 1.791H31v8.179c0 8.841 7.197 16.01 16.082 16.01 8.886 0 16.089-7.169 16.089-16.01V30.59h-.009zM57.408 16.17c0 1.487-1.21 2.692-2.704 2.692A2.698 2.698 0 0 1 52 16.17c0-1.486 1.21-2.691 2.704-2.691a2.698 2.698 0 0 1 2.704 2.69M43.408 16.17c0 1.487-1.21 2.692-2.704 2.692A2.698 2.698 0 0 1 38 16.17c0-1.486 1.21-2.691 2.704-2.691a2.698 2.698 0 0 1 2.704 2.69"/>
        <path fill="#FF8FE3" d="M45 73.057h4.293V51.84H45z"/>
        <path fill="#FF8FE3" d="M52.59 76.309c0 2.91-2.37 5.269-5.295 5.269-2.924 0-5.295-2.36-5.295-5.27 0-2.909 2.37-5.268 5.295-5.268 2.924 0 5.295 2.359 5.295 5.269"/>
        <path fill="#FFF" d="M49.801 76.308c0 1.32-1.074 2.39-2.4 2.39A2.395 2.395 0 0 1 45 76.308a2.395 2.395 0 0 1 2.401-2.388c1.326 0 2.4 1.07 2.4 2.388"/>
    </g>
</svg>
