<svg xmlns="http://www.w3.org/2000/svg" width="97" height="96" viewBox="0 0 97 96">
    <defs>
        <linearGradient id="a" x1="50%" x2="50%" y1="0%" y2="100%">
            <stop offset="0%" stop-color="#6A2440"/>
            <stop offset="100%"/>
        </linearGradient>
    </defs>
    <g fill="none" fill-rule="evenodd">
        <path fill="url(#a)" d="M96.194 48.143c0 26.3-21.427 47.622-47.858 47.622C21.905 95.765.478 74.444.478 48.143S21.905.52 48.336.52c26.43 0 47.858 21.322 47.858 47.623"/>
        <path fill="#FF8FE3" d="M44.072 20.406c0 3.317-2.703 6.007-6.036 6.007-3.333 0-6.036-2.69-6.036-6.007 0-3.317 2.703-6.006 6.036-6.006 3.333 0 6.036 2.69 6.036 6.006M47 51.943l.222.714 6.227-1.917-5.697-19.122a3.345 3.345 0 0 0-.234-.784l-.046-.155-.023.007a3.4 3.4 0 0 0-2.685-1.867V28.8H32v.023a3.4 3.4 0 0 0-2.681 1.927l-.097-.03L23 50.74l.038.012a3.26 3.26 0 0 0 3.229 3.75c1.3 0 2.423-.755 2.949-1.849l.011.004.027-.086c.103-.23.18-.475.227-.73l.519-1.67v28.334h.009a3.392 3.392 0 0 0 3.39 3.14 3.392 3.392 0 0 0 3.39-3.14h.01V58.444h.014c0-.796.764-1.447 1.593-1.447.828 0 1.588.651 1.588 1.447H40v20.06h.009a3.392 3.392 0 0 0 3.39 3.14 3.392 3.392 0 0 0 3.39-3.14h.01v-20.06H47v-6.5zM64.772 25.52c0 2.96-2.412 5.359-5.386 5.359-2.975 0-5.386-2.4-5.386-5.36 0-2.96 2.411-5.359 5.386-5.359 2.974 0 5.386 2.4 5.386 5.36M71.685 55.344A2.678 2.678 0 0 1 69 52.672 2.678 2.678 0 0 1 71.685 50a2.678 2.678 0 0 1 2.685 2.672 2.678 2.678 0 0 1-2.685 2.672zM58.238 78.944a3.112 3.112 0 0 1-3.12 3.103A3.111 3.111 0 0 1 52 78.944a3.11 3.11 0 0 1 3.119-3.104 3.111 3.111 0 0 1 3.119 3.104M67.238 78.944a3.112 3.112 0 0 1-3.12 3.103A3.111 3.111 0 0 1 61 78.944a3.11 3.11 0 0 1 3.119-3.104 3.111 3.111 0 0 1 3.119 3.104M57.238 35.744a3.112 3.112 0 0 1-3.12 3.103A3.111 3.111 0 0 1 51 35.744a3.111 3.111 0 0 1 3.119-3.104 3.112 3.112 0 0 1 3.119 3.104M67.238 35.744a3.112 3.112 0 0 1-3.12 3.103A3.111 3.111 0 0 1 61 35.744a3.111 3.111 0 0 1 3.119-3.104 3.112 3.112 0 0 1 3.119 3.104"/>
        <path fill="#FF8FE3" d="M54 38.06h10.373v-5.42H54z"/>
        <path fill="#FF8FE3" d="M62 36.665l4.97-2.126 7.2 17.077-4.955 2.06zM52 78.712h6.238V48.96H52z"/>
        <path fill="#FF8FE3" d="M61 78.712h6.238V48.96H61z"/>
        <path fill="#FF8FE3" d="M64.686 37.44H54.297L49 60.587h20.984z"/>
        <path fill="#FF8FE3" d="M56.274 36.665l-5.02-2.175L44 51.56l5.305 2.37z"/>
        <path fill="#FFF" d="M53 43.82a3.5 3.5 0 1 0-7.002.001 3.5 3.5 0 0 0 7.002 0z"/>
        <path fill="#FFF" d="M61.834 39.801l-.008-.005c.111-.243.174-.512.174-.796 0-1.105-.934-2-2.087-2-.687 0-1.291.322-1.671.814l-.013-.008-.045.074-.008.013-6.587 10.935h-4.178l-6.588-10.937-.007-.01-.045-.075-.013.008A2.107 2.107 0 0 0 39.087 37C37.934 37 37 37.895 37 39c0 .284.063.553.174.796l-.008.005.183.306c.004.004.005.008.009.013l6.778 11.252v28.311c0 1.15.972 2.08 2.171 2.08 1.2 0 2.171-.93 2.171-2.08V66.886c.126-.383.463-.664.87-.664.51 0 .928.439.928.976v12.485c0 1.15.971 2.08 2.17 2.08 1.2 0 2.172-.93 2.172-2.08v-27.91l.004.002 7.02-11.655.008-.012.184-.307z"/>
    </g>
</svg>
