<svg xmlns="http://www.w3.org/2000/svg" width="96" height="96" viewBox="0 0 96 96">
    <defs>
        <linearGradient id="a" x1="50%" x2="50%" y1="0%" y2="100%">
            <stop offset="0%" stop-color="#6A2440"/>
            <stop offset="100%"/>
        </linearGradient>
    </defs>
    <g fill="none" fill-rule="evenodd">
        <path fill="url(#a)" d="M47.858 95.246C21.427 95.246 0 73.924 0 47.623S21.427 0 47.858 0c26.43 0 47.858 21.322 47.858 47.623 0 26.3-21.427 47.623-47.858 47.623z"/>
        <path fill="#FF8FE3" d="M49.145 63.993h36.202v-10.18H49.145z"/>
        <path fill="#FFF" d="M55.045 40.895v15.281c0 6.864 5.59 12.427 12.488 12.427 6.897 0 12.488-5.563 12.488-12.427V40.895H55.045z"/>
        <path fill="#6A2440" d="M67.533 63a3.48 3.48 0 0 1-3.49-3.472h-1.445c0 2.712 2.21 4.91 4.935 4.91 2.725 0 4.934-2.198 4.934-4.91h-1.445A3.48 3.48 0 0 1 67.532 63"/>
        <path fill="#FF8FE3" d="M49.146 63.993h6.072v-16.66h-6.072zM79.891 63.993h5.456v-16.66H79.89z"/>
        <path fill="#FF8FE3" d="M67.89 30.52c-9.994-.381-18.706 6.828-18.744 16.118-.007 1.717.161 2.255.41 2.95.809.135 2.224.308 3.068.34 7.333.28 13.174-2.505 16.241-8.222 3.13 4.31 8.344 7.232 14.35 7.461.686.027 1.364.014 2.033-.03.04-.369.073-.74.087-1.116.358-9.283-7.453-17.119-17.446-17.5"/>
        <path fill="#6A2440" d="M64.323 54.176a2.152 2.152 0 0 1-2.157 2.147 2.151 2.151 0 0 1-2.157-2.147c0-1.185.965-2.146 2.157-2.146 1.191 0 2.157.961 2.157 2.146M74.888 54.176a2.152 2.152 0 0 1-2.157 2.147 2.151 2.151 0 0 1-2.157-2.147c0-1.185.966-2.146 2.157-2.146s2.157.961 2.157 2.146"/>
        <path fill="#FFF" d="M14.422 38.552v17.661c0 7.044 5.739 12.754 12.817 12.754 7.08 0 12.818-5.71 12.818-12.754v-17.66H14.422z"/>
        <path fill="#6A2440" d="M23.865 53.345a2.208 2.208 0 0 1-2.215 2.203 2.208 2.208 0 0 1-2.213-2.203c0-1.216.991-2.203 2.213-2.203a2.21 2.21 0 0 1 2.215 2.203M34.708 53.345a2.208 2.208 0 0 1-2.214 2.203 2.208 2.208 0 0 1-2.214-2.203c0-1.216.992-2.203 2.214-2.203a2.21 2.21 0 0 1 2.214 2.203"/>
        <path fill="#FFF" d="M42.094 57.827h-1.15a2.348 2.348 0 0 1-2.347-2.336v-4.77a2.348 2.348 0 0 1 2.347-2.336h1.15c1.29 0 2.347 1.05 2.347 2.335v4.77a2.349 2.349 0 0 1-2.347 2.337M13.534 57.827h-1.15a2.348 2.348 0 0 1-2.346-2.336v-4.77a2.348 2.348 0 0 1 2.347-2.336h1.15c1.29 0 2.347 1.05 2.347 2.335v4.77a2.349 2.349 0 0 1-2.348 2.337"/>
        <path fill="#FF8FE3" d="M27.899 30.227c-9.658-.37-18.095 7.049-18.154 16.584-.01 1.76.152 2.313.39 3.026.782.137 2.15.311 2.965.342 7.087.27 12.74-2.602 15.717-8.475a17.54 17.54 0 0 0 13.851 7.624c.663.026 1.319.01 1.966-.035.04-.379.072-.76.087-1.147.367-9.527-7.164-17.55-16.822-17.92"/>
        <path fill="#6A2440" d="M27.24 63.257a3.48 3.48 0 0 1-3.49-3.471h-1.445c0 2.711 2.209 4.91 4.934 4.91s4.935-2.199 4.935-4.91h-1.446a3.48 3.48 0 0 1-3.489 3.471"/>
    </g>
</svg>
