<svg xmlns="http://www.w3.org/2000/svg" width="96" height="95" viewBox="0 0 96 95">
    <defs>
        <linearGradient id="a" x1="50%" x2="50%" y1="0%" y2="100%">
            <stop offset="0%" stop-color="#6A2440"/>
            <stop offset="100%"/>
        </linearGradient>
    </defs>
    <g fill="none" fill-rule="evenodd">
        <path fill="url(#a)" d="M95.357 47.725c0 26.04-21.207 47.151-47.365 47.151S.628 73.766.628 47.725C.628 21.685 21.834.574 47.992.574c26.158 0 47.365 21.11 47.365 47.151"/>
        <path fill="#FFF" d="M47.35 52.064c0 3.231-2.631 5.851-5.878 5.851-3.246 0-5.877-2.62-5.877-5.851 0-3.232 2.63-5.852 5.877-5.852s5.878 2.62 5.878 5.852zM18.049 52.064c0 3.231-2.632 5.851-5.879 5.851-3.246 0-5.877-2.62-5.877-5.851 0-3.232 2.631-5.852 5.877-5.852 3.247 0 5.879 2.62 5.879 5.852"/>
        <path fill="#FFF" d="M26.945 69.946c-8.863 0-16.115-7.219-16.115-16.042v-5.348c0-8.823 7.252-16.043 16.115-16.043s16.115 7.22 16.115 16.044v5.347c0 8.823-7.252 16.042-16.115 16.042"/>
        <path fill="#FF8FE3" d="M43.04 55.521c-1.356-.44-4.107.14-5.975 3.046a5.898 5.898 0 0 1-.919 1.105 3.917 3.917 0 0 0-3.817-3.07H20.678a3.92 3.92 0 0 0-3.583 2.347 5.868 5.868 0 0 1-.27-.382c-1.827-2.842-4.61-3.52-5.995-3.134v1.96c0 6.885 5.658 12.519 12.575 12.519h7.08c6.917 0 12.575-5.634 12.575-12.519v-1.888l-.02.016"/>
        <path fill="#6A2440" d="M26.945 63.63a3.445 3.445 0 0 1-3.453-3.438h-1.43c0 2.685 2.186 4.862 4.883 4.862 2.698 0 4.884-2.177 4.884-4.862h-1.43a3.445 3.445 0 0 1-3.454 3.438M19.495 53.212a1.733 1.733 0 0 1-1.732-1.724 1.733 1.733 0 0 1 3.464 0c0 .948-.78 1.724-1.732 1.724M21.206 47.641h-3.422a.857.857 0 0 1-.856-.851c0-.469.385-.852.856-.852h3.422c.47 0 .855.383.855.852a.857.857 0 0 1-.855.851M34.465 53.212a1.733 1.733 0 0 1-1.732-1.724 1.733 1.733 0 0 1 3.464 0c0 .948-.78 1.724-1.732 1.724M36.01 47.641h-3.09a.857.857 0 0 1-.857-.851c0-.469.385-.852.857-.852h3.09c.47 0 .856.383.856.852a.857.857 0 0 1-.856.851M34.767 38.097a16.92 16.92 0 0 0-7.83-1.913c-2.828 0-5.491.693-7.836 1.912a.44.44 0 1 0 .309.82 16.076 16.076 0 0 1 7.527-1.86c2.722 0 5.28.676 7.528 1.864l.001-.003a.44.44 0 0 0 .657-.386.443.443 0 0 0-.356-.434M35.729 41.286a18.996 18.996 0 0 0-8.792-2.149c-3.177 0-6.167.779-8.8 2.147a.495.495 0 1 0 .345.919l.001.002a18.05 18.05 0 0 1 8.454-2.09c3.055 0 5.93.761 8.452 2.095 0-.002.002-.002.002-.003a.498.498 0 1 0 .338-.921"/>
        <path fill="#FF8FE3" d="M80.478 35.627c0 5.64-4.593 10.212-10.26 10.212-5.665 0-10.258-4.572-10.258-10.212s4.593-10.214 10.259-10.214 10.26 4.573 10.26 10.214"/>
        <path fill="#FFF" d="M90.564 52.064c0 3.231-2.632 5.851-5.878 5.851-3.247 0-5.879-2.62-5.879-5.851 0-3.232 2.632-5.852 5.879-5.852 3.246 0 5.878 2.62 5.878 5.852M61.262 52.064c0 3.231-2.632 5.851-5.878 5.851s-5.878-2.62-5.878-5.851c0-3.232 2.632-5.852 5.878-5.852s5.878 2.62 5.878 5.852"/>
        <path fill="#FFF" d="M70.159 69.946c-8.864 0-16.115-7.219-16.115-16.042v-5.348c0-8.823 7.25-16.043 16.115-16.043 8.863 0 16.115 7.22 16.115 16.044v5.347c0 8.823-7.252 16.042-16.115 16.042"/>
        <path fill="#6A2440" d="M70.159 64.602a3.445 3.445 0 0 1-3.453-3.438h-1.43c0 2.685 2.185 4.862 4.883 4.862 2.697 0 4.883-2.177 4.883-4.862h-1.43a3.445 3.445 0 0 1-3.453 3.438M61.677 53.371a1.733 1.733 0 0 1-1.732-1.724 1.733 1.733 0 0 1 3.464 0c0 .948-.779 1.724-1.732 1.724"/>
        <path fill="#FF8FE3" d="M88.07 46.206v-3.342c0-6.885-5.66-12.518-12.576-12.518H64.681c-6.916 0-12.574 5.633-12.574 12.518v4.171c11.985 2.975 21.382-7.251 21.382-7.251s5.666 7.56 14.722 7.56c-.029-.388-.08-.766-.142-1.138"/>
        <path stroke="#6A2440" stroke-width="2" d="M63.243 56.64h-3.132c-2.759 0-5.016-2.246-5.016-4.993 0-2.747 2.257-4.994 5.016-4.994h3.132c2.76 0 5.016 2.247 5.016 4.994s-2.257 4.994-5.016 4.994z"/>
        <path fill="#6A2440" d="M78.282 53.371a1.733 1.733 0 0 1-1.733-1.724 1.733 1.733 0 0 1 3.465 0c0 .948-.78 1.724-1.732 1.724"/>
        <path stroke="#6A2440" stroke-width="2" d="M79.847 56.64h-3.131c-2.76 0-5.017-2.246-5.017-4.993 0-2.747 2.258-4.994 5.017-4.994h3.131c2.76 0 5.017 2.247 5.017 4.994s-2.257 4.994-5.017 4.994z"/>
        <path fill="#6A2440" d="M68.26 52.752h3.44v-1.197h-3.44zM65.025 59.785a.413.413 0 0 0-.379-.408v-.008l-.03.002-.01-.002-.012.002a2.826 2.826 0 0 0-2.781 2.818c0 .254.037.5.1.734l.012-.01a.409.409 0 0 0 .397.327.414.414 0 0 0 .381-.576 1.967 1.967 0 0 1-.06-.475c0-1.086.873-1.965 1.957-1.99l.007.002c.007 0 .014-.004.02-.004l.019-.002v-.002a.414.414 0 0 0 .379-.408M75.161 59.785c0-.216.168-.388.38-.408v-.008l.03.002.009-.002.012.002a2.826 2.826 0 0 1 2.782 2.818c0 .254-.037.5-.1.734-.005-.003-.009-.006-.012-.01a.409.409 0 0 1-.398.327.414.414 0 0 1-.38-.576c.037-.152.06-.311.06-.475a1.996 1.996 0 0 0-1.958-1.99l-.006.002c-.008 0-.014-.004-.022-.004l-.018-.002v-.002a.414.414 0 0 1-.379-.408"/>
    </g>
</svg>
