<svg xmlns="http://www.w3.org/2000/svg" xmlns:xlink="http://www.w3.org/1999/xlink" width="96" height="100" viewBox="0 0 96 100">
    <defs>
        <path id="a" d="M.26 50.208c0 27.396 21.427 49.606 47.857 49.606 26.433 0 47.859-22.21 47.859-49.606C95.976 22.81 74.55.6 48.117.6 21.687.6.261 22.81.261 50.208z"/>
    </defs>
    <g fill="none" fill-rule="evenodd">
        <path fill="#A66251" d="M95.716 49.607c0 27.397-21.427 49.607-47.858 49.607C21.427 99.214 0 77.004 0 49.607S21.427 0 47.858 0c26.43 0 47.858 22.21 47.858 49.607"/>
        <g>
            <path fill="#FFF" d="M66.897 65.553c0 9.817-8.957 17.775-20.004 17.775-11.048 0-20.004-7.958-20.004-17.775 0-9.817 8.956-17.775 20.004-17.775 11.047 0 20.004 7.958 20.004 17.775z"/>
            <mask id="b" fill="#fff">
                <use xlink:href="#a"/>
            </mask>
            <path fill="#FFF" d="M26.889 67.075h7.303V35.16H26.89zM36.435 59.628h7.304V24.45h-7.304zM45.982 55.843h7.303V20.664h-7.303zM55.529 60.321h7.304V25.142h-7.304z" mask="url(#b)"/>
            <path fill="#FFF" d="M34.192 35.161c0-2.09-1.635-3.785-3.652-3.785-2.016 0-3.651 1.695-3.651 3.785s1.635 3.785 3.651 3.785c2.017 0 3.652-1.695 3.652-3.785M53.285 20.664c0-2.09-1.635-3.785-3.651-3.785-2.017 0-3.652 1.695-3.652 3.785s1.635 3.785 3.652 3.785c2.016 0 3.651-1.695 3.651-3.785M62.832 25.142c0-2.09-1.635-3.785-3.652-3.785-2.016 0-3.651 1.695-3.651 3.785s1.635 3.785 3.651 3.785c2.017 0 3.652-1.695 3.652-3.785M43.739 24.45c0-2.091-1.635-3.786-3.652-3.786-2.016 0-3.652 1.695-3.652 3.785s1.636 3.785 3.652 3.785c2.017 0 3.652-1.695 3.652-3.785M36.435 103.29h21.1V74.348h-21.1zM59.45 72.178c-2.111-1.607-2.566-4.685-1.015-6.873L69.052 50.32c1.551-2.189 4.52-2.66 6.631-1.053 2.112 1.608 2.567 4.685 1.016 6.874L66.08 71.126c-1.55 2.189-4.52 2.66-6.63 1.052" mask="url(#b)"/>
            <path fill="#B70610" d="M56.03 62.117c.002-.036.003-.073.003-.11 0-2.763-2.161-5.004-4.828-5.004-2.33 0-4.273 1.71-4.728 3.984-.454-2.274-2.398-3.984-4.727-3.984-2.666 0-4.828 2.24-4.828 5.005 0 0-1.057 6.822 9.44 12.533l.108.058.109-.058c9.722-5.29 9.533-11.532 9.452-12.424" mask="url(#b)"/>
        </g>
    </g>
</svg>
