<svg xmlns="http://www.w3.org/2000/svg" width="38" height="46" viewBox="0 0 38 46">
    <g fill="none" fill-rule="evenodd">
        <path fill="none" d="M-11-7h60v60h-60z"/>
        <path fill="#707929" d="M29.12 45.6H5.373c-2.568 0-4.668-2.177-4.668-4.839V5.121c0-2.662 2.1-4.84 4.668-4.84H29.12c2.568 0 4.668 2.178 4.668 4.84v35.64c0 2.662-2.1 4.84-4.668 4.84M36.879 5.958h-1.987v6.927h1.987a.646.646 0 0 0 .632-.656V6.612a.646.646 0 0 0-.632-.654M36.879 32.636h-1.987v6.927h1.987a.646.646 0 0 0 .632-.656v-5.616a.646.646 0 0 0-.632-.655M36.879 14.85h-1.987v6.927h1.987a.646.646 0 0 0 .632-.655v-5.617a.646.646 0 0 0-.632-.655M36.879 23.743h-1.987v6.927h1.987a.646.646 0 0 0 .632-.655v-5.617a.646.646 0 0 0-.632-.655"/>
        <path fill="#FFF" d="M21.762 15.88c0 2.584-2.021 4.68-4.516 4.68-2.493 0-4.514-2.096-4.514-4.68 0-2.585 2.02-4.68 4.514-4.68 2.495 0 4.516 2.095 4.516 4.68M25.863 32.73c-.345-5.843-4.069-10.444-8.616-10.444-4.548 0-8.271 4.601-8.617 10.444 0 0 6.19.772 8.617.772 2.426 0 8.616-.772 8.616-.772"/>
    </g>
</svg>
