<svg xmlns="http://www.w3.org/2000/svg" width="24" height="41" viewBox="0 0 24 41">
    <g fill="none" fill-rule="evenodd">
        <path fill="none" d="M-18-10h60v60h-60z"/>
        <path fill="#707929" d="M12.108 17.948c-3.213 0-5.818-2.7-5.818-6.03 0-3.331 2.605-6.03 5.818-6.03 3.213 0 5.818 2.699 5.818 6.03 0 3.33-2.605 6.03-5.818 6.03m11.548-5.873c0-6.61-5.17-11.969-11.548-11.969S.56 5.465.56 12.076c0 1.797.385 3.5 1.07 5.031l-.001.001.063.14.01.022 10.406 23.138L22.514 17.27l.01-.021.063-.141h-.002a12.286 12.286 0 0 0 1.07-5.033"/>
    </g>
</svg>
