<svg xmlns="http://www.w3.org/2000/svg" xmlns:xlink="http://www.w3.org/1999/xlink" width="97" height="100" viewBox="0 0 97 100">
    <defs>
        <path id="a" d="M70.963.289c-.817 11.11-5.165 21.197-11.884 29.057H.4V.289h70.564z"/>
    </defs>
    <g fill="none" fill-rule="evenodd">
        <path fill="#A66251" d="M96.445 50.207c0 27.397-21.427 49.607-47.858 49.607C22.157 99.814.73 77.604.73 50.207S22.157.6 48.587.6c26.431 0 47.858 22.21 47.858 49.607"/>
        <path fill="#FFF" d="M62.748 28.445c0-.057.004-.114.004-.17 0-4.303-3.365-7.791-7.516-7.791-2.947 0-6.485 1.304-7.358 4.29-.795-3.013-4.143-4.29-7.36-4.29-4.15 0-7.515 3.488-7.515 7.79 0 0-1.644 10.62 14.694 19.51v.183c.058-.03.112-.061.169-.092l.168.092v-.184c15.133-8.233 14.84-17.95 14.714-19.338"/>
        <path fill="#B70610" d="M57.147 30.649c.001-.036.003-.07.003-.106 0-2.684-2.099-4.858-4.687-4.858-2.262 0-4.148 1.659-4.59 3.867-.441-2.208-2.328-3.867-4.59-3.867-2.588 0-4.686 2.174-4.686 4.858 0 0-1.026 6.622 9.164 12.167l.105.057.105-.057c9.438-5.136 9.255-11.195 9.176-12.061"/>
        <g transform="translate(25 53.9)">
            <mask id="b" fill="#fff">
                <use xlink:href="#a"/>
            </mask>
            <path fill="#FFF" d="M2.533 15.529l-.008.018 27.2 12.777s1.439 1.022 3.37 1.022c1.73 0 19.474-8.813 23.154-10.65H75.15V.29H20.258v.017a3.922 3.922 0 0 0-.329-.017c-2.178 0-3.944 1.83-3.944 4.088s1.766 4.089 3.944 4.089c.111 0 .22-.007.329-.017v.017H30.48c1.778.338 3.128 1.946 3.128 3.886 0 2.123-1.612 3.851-3.636 3.952v.01l-.026-.009c-.053.003-.106.008-.159.008L5.611 8.54l-.001.003a3.582 3.582 0 0 0-1.504-.332C2.058 8.21.399 9.93.399 12.053c0 1.539.874 2.862 2.134 3.476" mask="url(#b)"/>
        </g>
    </g>
</svg>
