<svg xmlns="http://www.w3.org/2000/svg" xmlns:xlink="http://www.w3.org/1999/xlink" width="97" height="100" viewBox="0 0 97 100">
    <defs>
        <path id="a" d="M9.238.255C3.788 8.311.588 18.123.588 28.711c0 .63.011 1.26.034 1.885h68.002V.256H9.238z"/>
    </defs>
    <g fill="none" fill-rule="evenodd">
        <path fill="#7B483B" d="M96.21 50.207c0 27.397-21.426 49.607-47.857 49.607S.495 77.604.495 50.207 21.922.6 48.353.6C74.783.6 96.21 22.81 96.21 50.207"/>
        <path fill="#FFF" d="M54.413 48.968c-.22 3.353-2.737 6-5.82 6-.165 0-.327-.013-.487-.027v.027h-4.907a12.7 12.7 0 0 0-1.718 6.388c0 6.869 5.372 12.437 11.999 12.437 6.626 0 11.998-5.568 11.998-12.437 0-6.542-4.876-11.893-11.065-12.388"/>
        <g transform="translate(0 22)">
            <mask id="b" fill="#fff">
                <use xlink:href="#a"/>
            </mask>
            <path fill="#FFF" d="M66.396 14.682l.008-.019-28.402-13.34S36.5.255 34.485.255c-1.807 0-20.335 9.202-24.178 11.12H-9.429v19.22h57.317v-.018c.113.01.227.019.343.019 2.275 0 4.118-1.912 4.118-4.27 0-2.357-1.843-4.27-4.118-4.27-.116 0-.23.01-.343.02v-.02H37.214c-1.857-.352-3.266-2.03-3.266-4.057 0-2.217 1.684-4.02 3.797-4.126v-.01l.027.01c.056-.003.11-.01.166-.01l25.244 8.116.001-.002c.48.221 1.011.347 1.57.347 2.138 0 3.871-1.797 3.871-4.013 0-1.605-.913-2.988-2.228-3.629" mask="url(#b)"/>
        </g>
        <path fill="#B70610" d="M60.214 60.247l.002-.077c0-1.947-1.523-3.525-3.4-3.525-1.642 0-3.011 1.205-3.332 2.807-.32-1.602-1.688-2.807-3.33-2.807-1.878 0-3.4 1.578-3.4 3.525 0 0-.745 4.806 6.65 8.828l.075.043.076-.043c6.849-3.725 6.717-8.122 6.66-8.75"/>
        <path fill="#FFF" d="M70.511 82.987H36.973c-1.33 0-2.417-1.128-2.417-2.506 0-1.377 1.088-2.505 2.417-2.505H70.51c1.33 0 2.417 1.128 2.417 2.505 0 1.378-1.088 2.506-2.417 2.506"/>
    </g>
</svg>
