<svg xmlns="http://www.w3.org/2000/svg" width="113" height="63" viewBox="0 0 113 63">
    <g fill="#FFF" fill-rule="nonzero">
        <path d="M109.075 44.532v-1.674h-.042l-.645 1.674h-.254l-.641-1.664h-.028v1.669h-.392v-2.134h.595l.6 1.577.604-1.577h.59v2.13h-.387zm-3.118-1.766v1.762h-.392v-1.762h-.65v-.363h1.697v.363h-.655zM79.792 27.334c.189-.088.632-.285.83-.382.198-.097.194-.211.125-.395a9.183 9.183 0 0 1 3.607-10.437 9.246 9.246 0 0 1 11.058.534 9.18 9.18 0 0 1 2.58 10.735.23.23 0 0 0 .092.299l.872.386a.245.245 0 0 0 .355-.152 10.593 10.593 0 0 0-3.025-12.435 10.67 10.67 0 0 0-12.824-.496 10.596 10.596 0 0 0-3.984 12.163c.05.161.139.267.314.18z"/>
        <path d="M77.098 28.58l1.186-.529a.244.244 0 0 0 .129-.345 11.567 11.567 0 0 1-.692-3.964 11.79 11.79 0 0 1 7.356-10.924A11.851 11.851 0 0 1 98 15.488a11.765 11.765 0 0 1 2.395 12.94.216.216 0 0 0 .097.327c.189.078 1.037.46 1.199.524.161.064.272.046.355-.152a13.302 13.302 0 0 0 1.125-5.39 13.583 13.583 0 0 0-8.237-12.5 13.655 13.655 0 0 0-14.769 2.626 13.556 13.556 0 0 0-3.394 14.57c.027.078.097.253.327.147z"/>
        <path d="M73.418 30.268l2.149-.99c.286-.123.161-.344.12-.459a14.69 14.69 0 0 1 5.235-17.01 14.794 14.794 0 0 1 17.84.452 14.687 14.687 0 0 1 4.363 17.252.303.303 0 0 0 .166.46l2.034.888c.208.096.37.078.512-.244a17.602 17.602 0 0 0-5.336-20.716 17.73 17.73 0 0 0-21.45-.349c-6.413 4.713-8.874 13.119-6.011 20.532.046.092.12.308.378.184z"/>
        <path d="M89.551 19.889a1.893 1.893 0 0 0 1.896-1.89c0-1.044-.849-1.89-1.896-1.89a1.893 1.893 0 0 0-1.895 1.89 1.897 1.897 0 0 0 1.895 1.89z"/>
        <path d="M90.248 29.79a.672.672 0 0 0 .669-.672v-4.139a2.838 2.838 0 0 1 .751-1.59l3.916-3.905a.67.67 0 0 0 0-.952l-.71-.713a.675.675 0 0 0-.95 0L90.4 21.356a1.02 1.02 0 0 1-.835.368 1.011 1.011 0 0 1-.835-.368l-3.542-3.537a.675.675 0 0 0-.95 0l-.71.713a.67.67 0 0 0 0 .952l3.91 3.904c.418.436.683.994.757 1.591v4.139a.67.67 0 0 0 .674.671h1.379z"/>
        <path d="M102.6 31.27c-.665.235-1.9 1.453-2.468 1.95l-.148.032c.199-.225 1.052-1.301 1.273-1.67.674-1.112-.6-2.17-2.001-1.379a22.278 22.278 0 0 0-1.845 1.568l-.139.033c.426-.497.826-1.014 1.2-1.55.608-.92-.674-1.757-1.786-1.095a20.982 20.982 0 0 0-2.08 1.619l-.11.023c.18-.17.618-.685.784-.87.65-.726-.282-1.567-1.269-1.061-.987.505-2.306 1.84-3.795 2.79.691.369 1.909.42 3.837 1.247 1.928.828 2.546 2.76 1.291 4.245-1.162 1.38-2.938.92-4.464.46-1.771-.548-2.394-1.127-4.53-1.868-1.383-.46-1.964-.46-1.941-.873.023-.414 1.227-.184 2.352.225 3.127 1.127 7.278 3.679 8.302.92.803-2.18-2.8-3.132-4.174-3.39-1.923-.363-3.229-1.77-4.912-2.667-2.514-1.351-4.442-1.38-5.88-1.126-1.541.276-3.746 1.531-5.074 2.327-.923.552-.863 1.38.046 2.667a17.691 17.691 0 0 0 14.99 7.506 17.684 17.684 0 0 0 14.528-8.361c.683-1.095-.406-2.281-1.988-1.702z"/>
        <path d="M0 0v47.967h112.806V0H0zm66.287 46.905H1.061V1.058h65.226v45.847zm45.454 0H67.339V1.058h44.393l.009 45.847z"/>
        <path d="M51.879 43.396c0 .506 1.817 1.053 2.767 1.053a3.044 3.044 0 0 0 2.97-2.032c.724-1.77 3.713-11.988 3.713-11.988h.332c.678-.12.923-.525.923-1.55 0-.363-.051-.391-.346-.391h-2.454c-.235 0-.258.037-.332.271l-2.043 7.882-2.104-7.877c-.064-.24-.101-.267-.332-.276H52.51c-.3 0-.35.028-.35.39 0 1.03.249 1.44.922 1.55h.342s1.964 6.852 2.998 9.726l-.153.561c-.332 1.077-.922 1.573-1.808 1.573-.212 0-1.425-.18-1.425-.18-.682-.059-.862.226-.95.46a4.477 4.477 0 0 0-.207.828zM43.507 24.657h-2.92c-.253 0-.262 0-.304.28l-1.66 10.205-1.993-10.158c-.046-.271-.087-.327-.4-.327h-1.343c-.493 0-.512.07-.577.345L32.235 35.12l-1.559-10.181c-.037-.258-.05-.28-.3-.28H27.37c-.318 0-.369.027-.369.409 0 1.122.268 1.531 1.075 1.623h.3l2.306 12.554c.073.29.11.35.382.35h1.988c.319 0 .328 0 .383-.35l1.974-9.763 1.67 9.768c.055.326.06.344.383.344h2.024c.273 0 .31-.06.383-.35l2.565-12.571h.295c.798-.092 1.065-.502 1.065-1.624.023-.34-.037-.377-.286-.39z"/>
        <path d="M51.145 37.64a6.998 6.998 0 0 1-.235-1.992v-3.955c0-2.483-1.08-3.591-3.547-3.591-1.702 0-3.547.74-3.547 1.204.04.256.104.506.19.75.046.152.16.492.894.437.295 0 1.555-.262 2.085-.262 1.384 0 1.536.81 1.536 1.77v.782c-1.744 0-5.489 0-5.489 3.775 0 2.125 1.181 3.44 3.081 3.44a3.232 3.232 0 0 0 2.592-1.264l.166-.18.056.285c.083.46.175.777.535.777h2.527c.314 0 .355-.023.355-.39.01-1.132-.267-1.518-1.199-1.587zm-2.61-.53a2.354 2.354 0 0 1-1.656.92 1.524 1.524 0 0 1-1.078-.504 1.515 1.515 0 0 1-.384-1.124c0-2.05 2.449-1.936 3.113-1.89l.005 2.598zM33.393 19.135h-.268v-8.908c0-.216 0-.239-.217-.239h-3.537c-.305 0-.346.023-.346.39 0 1.21.323 1.583 1.384 1.583h.258v7.169h-.268c-1.047 0-1.383.368-1.383 1.582 0 .363.05.39.355.39h5.041c.295 0 .35-.031.35-.39 0-1.191-.34-1.577-1.37-1.577zM31.857 5.762c-.413.01-.804.184-1.086.484-.282.3-.43.7-.413 1.112-.044.558.23 1.094.709 1.387.479.293 1.082.293 1.561 0 .48-.293.753-.829.71-1.387a1.533 1.533 0 0 0-.41-1.104 1.542 1.542 0 0 0-1.071-.492zM15.151 8.576h.07c1.065 0 1.41-.395 1.41-1.632 0-.373-.05-.405-.359-.405h-4.866c-.277 0-.323.042-.35.207v.193c0 1.233.34 1.628 1.383 1.633h.074v7.316c0 1.38 0 3.297-2.25 3.297-2.085 0-2.256-1.494-2.256-3.297V8.576h.069c1.052 0 1.384-.4 1.384-1.632v-.235c-.028-.133-.074-.165-.346-.165H4.248c-.31 0-.36.027-.36.404 0 1.251.328 1.633 1.416 1.633h.065v7.307c0 3.927 1.462 5.61 4.893 5.61 3.432 0 4.894-1.683 4.894-5.61l-.005-7.312zM26.414 19.135v-6.01c0-2.443-.802-3.537-2.606-3.537-1.605 0-2.495.92-3.187 1.646a7.262 7.262 0 0 0-.106-.46c-.11-.492-.198-.79-.512-.79h-2.735c-.3 0-.346.022-.346.39 0 1.145.286 1.555 1.26 1.578.182.658.257 1.341.22 2.023v5.16c-1.028 0-1.341.377-1.341 1.581 0 .364.05.391.35.391h3.229c.203 0 .212-.032.212-.243v-8.057a2.738 2.738 0 0 1 1.845-.97c1.231 0 1.231 1.38 1.231 1.995v7.036c0 .212 0 .244.212.244h3.23c.294 0 .35-.032.35-.391.032-1.186-.3-1.577-1.306-1.586zM39.462 21.498c1.444 0 2.61-.377 2.61-.68 0-.051-.082-.46-.133-.686-.203-.832-.277-1.145-1.808-.956a.564.564 0 0 1-.484-.138c-.3-.294-.3-.952-.3-1.476v-5.606h1.384c1.051 0 1.383-.372 1.383-1.582 0-.363-.046-.39-.35-.39h-2.417V6.851c0-.294-.028-.308-.134-.308-.106 0-.613.064-.867.1-.71.116-1.471.663-1.471 1.918v1.421h-1.411c-.31 0-.346.023-.346.391 0 1.21.318 1.582 1.383 1.582h.392v5.21c-.023 2.148-.023 4.332 2.57 4.332zM51.463 15.75c0-4.084-1.383-6.157-4.045-6.157-2.66 0-4.436 2.441-4.436 6.07 0 4.819 2.467 5.835 4.543 5.835 1.67 0 3.616-.777 3.616-1.269a4.532 4.532 0 0 0-.199-.791c-.083-.248-.221-.497-.922-.46-.544.028-1.416.276-2.228.276-1.545 0-2.33-.966-2.334-3.012h5.609c.327 0 .396-.083.396-.492zm-5.926-1.495v-.193c.069-.754.23-2.515 1.808-2.515 1.577 0 1.554 1.798 1.554 2.713l-3.362-.005zM61.44 19.135a6.053 6.053 0 0 1-.226-1.992V6.056c0-.211 0-.243-.217-.243H57.74c-.305 0-.355.027-.355.39 0 1.173.313 1.555 1.291 1.578h.065v2.557l-.203-.138a3.041 3.041 0 0 0-1.965-.612c-2.537 0-3.888 2.226-3.888 6.415 0 3.545 1.227 5.495 3.459 5.495a4.31 4.31 0 0 0 2.933-1.287l.139.487c.11.377.12.418.424.418h2.864c.3 0 .35-.032.35-.39 0-1.205-.318-1.591-1.415-1.591zm-4.479.234c-1.503 0-1.799-1.38-1.799-3.757 0-2.525.31-3.886 1.928-3.886a2.773 2.773 0 0 1 1.647.483v6.319a2.12 2.12 0 0 1-1.771.841h-.005zM8.897 59.726c-.166.51-.803 1.214-2.195 1.214-.987 0-1.712-.294-2.076-.865a1.918 1.918 0 0 1-.281-1.214V54.37h1.333v4.24c-.022.262.015.526.11.772.18.313.526.493.886.46a.874.874 0 0 0 .987-.754 4.053 4.053 0 0 0 0-.575v-4.139h1.324v4.346c.036.338.007.68-.088 1.007zM12.817 60.82v-3.09c0-.538-.092-.694-.42-.694a1.454 1.454 0 0 0-.866.446v3.361h-1.246V57.4a3.412 3.412 0 0 0-.166-1.113l1.107-.317c.109.18.17.384.175.593a5.67 5.67 0 0 1 .55-.354c.266-.131.56-.2.857-.202.486-.028.94.244 1.144.685.071.218.102.447.092.676v3.472l-1.227-.019zM15.977 55.532a.769.769 0 0 1-.525-1.32.78.78 0 0 1 .552-.225.762.762 0 0 1 .757.772.767.767 0 0 1-.784.773zm-.623 5.293v-4.672l1.25-.193v4.865h-1.25zM19.27 60.93a1.288 1.288 0 0 1-1.282-.69 1.738 1.738 0 0 1-.083-.73v-2.58h-.461v-.855h.46c-.01-.375.006-.75.047-1.122l1.268-.318c-.049.478-.073.959-.074 1.44h1.117l-.319.855h-.802v2.391c0 .603.11.764.54.764.157-.009.312-.04.46-.092l.153.708a2.63 2.63 0 0 1-1.024.23zM21.959 58.834v.027c0 .731.364 1.15 1.005 1.15a1.848 1.848 0 0 0 1.209-.46l.461.745a2.74 2.74 0 0 1-1.799.658c-1.383 0-2.25-.966-2.25-2.46a2.593 2.593 0 0 1 .631-1.886c.376-.43.928-.666 1.5-.64.508-.019 1.005.161 1.383.502.438.46.632 1.085.632 2.079v.29l-2.772-.005zm1.462-.966a1.22 1.22 0 0 0-.148-.713.605.605 0 0 0-.548-.28c-.462 0-.748.372-.748 1.03h1.444v-.037zM28.467 60.82a.844.844 0 0 1-.074-.28c-.302.267-.694.41-1.098.4-1.208 0-1.974-.92-1.974-2.414 0-1.495.83-2.507 2.039-2.507.306-.014.606.08.848.267a5.727 5.727 0 0 1-.036-.703V53.95l1.24.193v4.939c0 1.168.093 1.55.176 1.734l-1.121.004zm-.282-3.5a1.044 1.044 0 0 0-.678-.307c-.558 0-.802.46-.802 1.522s.212 1.356.867 1.356a.891.891 0 0 0 .613-.308v-2.262zM38.245 60.875H36.82l-.577-2.625c-.14-.607-.243-1.221-.309-1.84 0 .147-.13.966-.309 1.84l-.54 2.644H33.61l-1.545-6.507h1.384l.558 2.543c.154.701.27 1.41.346 2.124a21.23 21.23 0 0 1 .337-2.06l.576-2.607h1.425l.595 2.888c.12.602.282 1.71.282 1.71 0-.206.212-1.512.355-2.142l.53-2.451h1.384l-1.591 6.483zM43.41 61.064a1.336 1.336 0 0 1-.668-.575c-.09.09-.188.174-.29.249a1.65 1.65 0 0 1-.96.257c-1.061 0-1.638-.538-1.638-1.485 0-1.113.775-1.633 2.307-1.633h.28v-.193c0-.529-.1-.703-.557-.703-.504.042-.984.23-1.384.538l-.53-.893c.245-.154.505-.285.775-.39.41-.184.855-.28 1.305-.281.802 0 1.351.299 1.536.828.084.277.112.567.083.855l-.028 1.596c-.081.414.102.834.461 1.057l-.692.773zm-1.06-2.3c-.867 0-1.163.157-1.163.727a.565.565 0 0 0 .55.621.923.923 0 0 0 .65-.331v-1.02l-.037.004zM47.192 60.894c-.327.92-.567 1.32-.922 1.568a2.523 2.523 0 0 1-1.153.437l-.42-.819c.273-.066.534-.173.775-.317.142-.107.262-.24.355-.39.111-.176.202-.363.272-.557h-.318a36.97 36.97 0 0 0-.461-1.338l-1.125-3.344 1.277-.147.83 2.76c.074.28.23.92.25.983a8.523 8.523 0 0 1 .332-1.42l.714-2.263h1.315l-1.72 4.847zM54.918 60.264a1.95 1.95 0 0 1-1.573.657c-1.296 0-2.14-.965-2.14-2.46 0-1.494.858-2.488 2.14-2.488a2 2 0 0 1 1.62.713c.398.489.594 1.11.548 1.738a2.57 2.57 0 0 1-.595 1.84zm-1.015-3.118a.684.684 0 0 0-1.18.23c-.1.344-.143.7-.13 1.058-.02.404.033.81.157 1.195a.692.692 0 0 0 .632.391c.54 0 .77-.483.77-1.605.046-.438-.04-.88-.249-1.269zM58.737 55.012a1.045 1.045 0 0 0-.512-.156.49.49 0 0 0-.521.538v.676h1.213l-.318.855h-.886v3.9h-1.218v-3.9h-.429v-.855h.462a4.87 4.87 0 0 1-.046-.648c0-.92.558-1.477 1.535-1.477.396-.005.785.099 1.126.3l-.406.767zM64.622 60.82l-1.965-3.37v3.37h-1.314v-6.438h1.333v2.943l1.845-2.943h1.6l-2.066 2.99 2.306 3.462zM67.422 55.532a.77.77 0 0 1-.53-1.316.78.78 0 0 1 .553-.225.762.762 0 0 1 .752.773.767.767 0 0 1-.775.768zm-.623 5.293v-4.672l1.245-.193v4.865H66.8zM71.882 60.82v-3.09c0-.538-.092-.694-.42-.694-.33.04-.635.19-.867.427v3.362h-1.25V57.38a3.403 3.403 0 0 0-.166-1.113l1.107-.318c.109.18.17.384.175.594.176-.129.36-.247.55-.354.266-.132.56-.201.857-.203.486-.027.94.244 1.144.685.071.218.102.447.092.676v3.472h-1.222zM78.214 56.94a2.627 2.627 0 0 1-.327-.028c.187.217.285.495.277.781 0 .819-.747 1.412-1.758 1.412h-.184c-.318.147-.494.262-.494.39 0 .13.074.111.203.111h.67c.518-.057 1.039.098 1.443.428.28.26.43.63.41 1.012a1.35 1.35 0 0 1-.383.984 2.574 2.574 0 0 1-1.881.611 2.672 2.672 0 0 1-1.804-.51 1.111 1.111 0 0 1-.392-.846.95.95 0 0 1 .11-.46h1.154a.665.665 0 0 0-.055.308c0 .382.318.584.894.584.271.02.542-.035.785-.156a.58.58 0 0 0 .309-.46c0-.428-.383-.557-.877-.566h-.53a3.381 3.381 0 0 1-1.144-.147.602.602 0 0 1-.364-.62c0-.309.092-.594.876-.8a1.233 1.233 0 0 1-1.024-1.32c0-.976.793-1.606 2.01-1.606.29.004.58.044.859.12.19.057.387.091.586.101.368-.01.72-.156.987-.41l.52.792c-.24.212-.556.318-.876.294zm-2.084-.047a.665.665 0 0 0-.747.704c0 .483.3.676.733.676s.766-.244.766-.676a.666.666 0 0 0-.752-.704zM84.229 60.93a2.642 2.642 0 0 1-2.113-.891 3.36 3.36 0 0 1-.784-2.3 4.128 4.128 0 0 1 .438-2.005 2.768 2.768 0 0 1 2.477-1.494 2.648 2.648 0 0 1 1.638.51l-.586.892a1.705 1.705 0 0 0-1.033-.363 1.343 1.343 0 0 0-1.098.556 2.954 2.954 0 0 0-.364 1.66c-.053.589.04 1.181.272 1.725.24.461.725.743 1.245.722.408 0 .801-.15 1.107-.418l.595.818c-.505.41-1.144.62-1.794.589zM89.879 60.264a1.95 1.95 0 0 1-1.573.657c-1.291 0-2.14-.965-2.14-2.46 0-1.494.858-2.488 2.14-2.488a2 2 0 0 1 1.619.713 2.46 2.46 0 0 1 .549 1.738 2.57 2.57 0 0 1-.595 1.84zm-1.015-3.118a.684.684 0 0 0-1.18.23c-.099.344-.143.7-.13 1.058-.02.404.033.81.157 1.195a.692.692 0 0 0 .632.391c.54 0 .77-.483.77-1.605.046-.438-.04-.88-.249-1.269zM94.551 60.95a1.09 1.09 0 0 1-.374-.46c-.342.31-.792.474-1.254.46a1.435 1.435 0 0 1-1.384-.769 2.843 2.843 0 0 1-.101-.947V56.19l1.227-.23v3.053c-.022.265.012.531.101.782a.503.503 0 0 0 .438.22.923.923 0 0 0 .775-.46v-3.342l1.19-.249v3.628c-.004.313.098.618.29.865l-.908.492zM98.882 60.82v-3.09c0-.538-.092-.694-.42-.694-.33.04-.635.19-.867.427v3.362H96.35V57.38a3.403 3.403 0 0 0-.166-1.113l1.107-.318c.108.18.169.384.175.594.176-.129.36-.247.549-.354.267-.132.56-.201.858-.203.486-.027.94.244 1.144.685.07.218.102.447.092.676v3.472h-1.227zM102.784 60.93a1.292 1.292 0 0 1-1.287-.694 1.743 1.743 0 0 1-.083-.73v-2.58h-.461v-.856h.461c-.01-.375.005-.75.046-1.122l1.269-.317c-.05.478-.074.958-.074 1.439h1.12l-.318.855h-.802v2.396c0 .603.11.764.54.764.157-.009.312-.04.46-.092l.12.708c-.312.14-.649.218-.991.23zM106.88 60.894c-.328.92-.568 1.32-.923 1.568a2.523 2.523 0 0 1-1.153.437l-.429-.819c.273-.066.534-.173.775-.317.142-.107.262-.24.355-.39.111-.176.203-.362.272-.557h-.318a36.97 36.97 0 0 0-.461-1.338l-1.126-3.344 1.273-.147.83 2.76c.074.28.231.92.25.983a8.523 8.523 0 0 1 .332-1.42l.715-2.263h1.314l-1.706 4.847z"/>
    </g>
</svg>
